<svg xmlns="http://www.w3.org/2000/svg" x="0px" y="0px" width="100" height="100" viewBox="0,0,256,256">
<g fill="#11276e" fill-rule="nonzero" stroke="none" stroke-width="1" stroke-linecap="butt" stroke-linejoin="miter" stroke-miterlimit="10" stroke-dasharray="" stroke-dashoffset="0" font-family="none" font-weight="none" font-size="none" text-anchor="none" style="mix-blend-mode: normal"><g transform="scale(10.66667,10.66667)"><path d="M12,2v12.85547c-0.81257,-0.4966 -1.78819,-0.85547 -3,-0.85547c-3.04167,0 -5,1.90741 -5,4c0,2.09259 1.95833,4 5,4c3.04167,0 5,-1.90741 5,-4v-1v-10.94141c0.51386,0.38306 1.034,0.80532 1.51563,1.07227c0.7379,0.40898 1.34609,0.7817 1.76367,1.30664c0.41758,0.52494 0.7207,1.22917 0.7207,2.5625v1h2v-1c0,-1.66667 -0.44688,-2.91931 -1.1543,-3.80859c-0.70741,-0.88928 -1.59923,-1.38815 -2.36133,-1.81055c-0.7621,-0.42239 -1.39568,-0.77766 -1.80273,-1.23047c-0.40705,-0.45281 -0.68164,-1.00009 -0.68164,-2.15039zM9,16c2.29167,0 3,1.09259 3,2c0,0.90741 -0.70833,2 -3,2c-2.29167,0 -3,-1.09259 -3,-2c0,-0.90741 0.70833,-2 3,-2z"></path></g></g>
</svg>